<mxfile host="app.diagrams.net" modified="2021-06-07T15:09:06.484Z" agent="5.0 (Macintosh; Intel Mac OS X 10_15_7) AppleWebKit/537.36 (KHTML, like Gecko) Chrome/90.0.4430.212 Safari/537.36" etag="VHkhrf1eIpCGiwvIT6PY" version="14.6.0" type="github">
  <diagram id="w8D657mxlGQfHznDpba7" name="Page-1">
    <mxGraphModel dx="786" dy="446" grid="1" gridSize="10" guides="1" tooltips="1" connect="1" arrows="1" fold="1" page="1" pageScale="1" pageWidth="850" pageHeight="1100" math="0" shadow="0">
      <root>
        <mxCell id="0" />
        <mxCell id="1" parent="0" />
        <mxCell id="w2xqddaMOJViEXT3OZfL-1" value="&lt;b&gt;UC&lt;/b&gt;" style="shape=umlFrame;whiteSpace=wrap;html=1;" vertex="1" parent="1">
          <mxGeometry x="10" y="10" width="780" height="430" as="geometry" />
        </mxCell>
        <mxCell id="w2xqddaMOJViEXT3OZfL-6" style="edgeStyle=orthogonalEdgeStyle;rounded=0;orthogonalLoop=1;jettySize=auto;html=1;" edge="1" parent="1" source="w2xqddaMOJViEXT3OZfL-2" target="w2xqddaMOJViEXT3OZfL-4">
          <mxGeometry relative="1" as="geometry" />
        </mxCell>
        <mxCell id="w2xqddaMOJViEXT3OZfL-2" value="Administrador&lt;br&gt;" style="shape=umlActor;verticalLabelPosition=bottom;verticalAlign=top;html=1;" vertex="1" parent="1">
          <mxGeometry x="410" y="50" width="30" height="60" as="geometry" />
        </mxCell>
        <mxCell id="w2xqddaMOJViEXT3OZfL-4" value="UsuÃ¡rio" style="shape=umlActor;verticalLabelPosition=bottom;verticalAlign=top;html=1;" vertex="1" parent="1">
          <mxGeometry x="410" y="260" width="30" height="60" as="geometry" />
        </mxCell>
        <mxCell id="w2xqddaMOJViEXT3OZfL-7" value="Fazer login" style="ellipse;whiteSpace=wrap;html=1;" vertex="1" parent="1">
          <mxGeometry x="30" y="60" width="140" height="70" as="geometry" />
        </mxCell>
        <mxCell id="w2xqddaMOJViEXT3OZfL-8" value="Autenticar" style="ellipse;whiteSpace=wrap;html=1;" vertex="1" parent="1">
          <mxGeometry x="250" y="20" width="140" height="70" as="geometry" />
        </mxCell>
        <mxCell id="w2xqddaMOJViEXT3OZfL-9" value="include" style="html=1;verticalAlign=bottom;endArrow=open;dashed=1;endSize=8;entryX=0;entryY=0.5;entryDx=0;entryDy=0;" edge="1" parent="1" source="w2xqddaMOJViEXT3OZfL-7" target="w2xqddaMOJViEXT3OZfL-8">
          <mxGeometry relative="1" as="geometry">
            <mxPoint x="440" y="230" as="sourcePoint" />
            <mxPoint x="360" y="230" as="targetPoint" />
          </mxGeometry>
        </mxCell>
      </root>
    </mxGraphModel>
  </diagram>
</mxfile>
